<svg width="67" height="19" viewBox="0 0 67 19" fill="none" xmlns="http://www.w3.org/2000/svg">
<path d="M9.048 10.944C9.048 10.576 8.824 10.376 8.376 10.344H6.672C6.544 10.344 6.48 10.304 6.48 10.224C6.576 9.76 6.744 9.392 6.984 9.12C7.224 8.832 7.424 8.672 7.584 8.64C8.032 8.576 8.768 8.544 9.792 8.544C10.816 8.544 11.456 8.552 11.712 8.568C11.968 8.568 12.128 8.592 12.192 8.64C12.256 8.72 12.288 8.816 12.288 8.928C12.288 9.024 12.256 9.688 12.192 10.92C12.144 12.136 12.12 13.232 12.12 14.208C12.12 15.168 12.152 15.776 12.216 16.032C12.28 16.272 12.312 16.424 12.312 16.488C12.312 16.744 12.088 17.024 11.64 17.328C11.192 17.616 10.512 17.872 9.6 18.096C8.704 18.32 7.712 18.432 6.624 18.432C5.168 18.432 3.904 17.928 2.832 16.92C2 16.12 1.424 15.248 1.104 14.304C0.8 13.36 0.648 12.032 0.648 10.32C0.648 3.968 2.976 0.792 7.632 0.792C8.416 0.792 9.12 0.88 9.744 1.056C10.368 1.216 10.912 1.544 11.376 2.04C11.856 2.52 12.096 3.144 12.096 3.912C12.096 4.312 12.016 4.72 11.856 5.136C11.568 5.984 10.928 6.408 9.936 6.408C9.392 6.408 8.976 6.272 8.688 6C8.416 5.712 8.28 5.32 8.28 4.824C8.28 4.632 8.384 4.512 8.592 4.464C8.896 4.288 9.048 3.992 9.048 3.576C9.048 3.144 8.888 2.816 8.568 2.592C8.248 2.352 7.912 2.232 7.56 2.232C6.792 2.232 6.144 2.512 5.616 3.072C5.088 3.616 4.704 4.336 4.464 5.232C4.064 6.832 3.864 8.464 3.864 10.128C3.864 12.848 4.528 14.656 5.856 15.552C6.352 15.904 6.872 16.08 7.416 16.08C8.424 16.08 8.96 15.896 9.024 15.528C9.072 15.032 9.096 14.264 9.096 13.224L9.048 10.944ZM15.9906 11.904L16.0146 12.504C16.0146 12.6 16.0786 12.648 16.2066 12.648C16.7186 12.6 17.1666 12.472 17.5506 12.264C17.9346 12.04 18.2226 11.792 18.4146 11.52C18.7986 10.928 19.0066 10.416 19.0386 9.984L19.0626 9.696C19.0626 8.832 18.7186 8.4 18.0306 8.4C17.5186 8.4 17.1026 8.624 16.7826 9.072C16.2546 9.776 15.9906 10.72 15.9906 11.904ZM21.2226 15.096C21.2226 15.704 21.0946 16.24 20.8386 16.704C20.5986 17.152 20.3186 17.488 19.9986 17.712C19.6946 17.92 19.3346 18.088 18.9186 18.216C18.3906 18.376 17.8866 18.456 17.4066 18.456C16.0626 18.456 15.0706 17.952 14.4306 16.944C13.7906 15.936 13.4706 14.656 13.4706 13.104C13.4706 11.536 13.8626 10.144 14.6466 8.928C15.4466 7.712 16.6386 7.104 18.2226 7.104C19.6626 7.104 20.6386 7.608 21.1506 8.616C21.3586 9 21.4626 9.368 21.4626 9.72C21.4626 10.056 21.4466 10.328 21.4146 10.536C21.3826 10.728 21.2706 11.024 21.0786 11.424C20.8866 11.824 20.6306 12.184 20.3106 12.504C19.9906 12.824 19.4866 13.128 18.7986 13.416C18.1106 13.704 17.3026 13.896 16.3746 13.992C16.2466 13.992 16.1826 14.048 16.1826 14.16C16.1826 14.304 16.2306 14.52 16.3266 14.808C16.4386 15.08 16.5586 15.312 16.6866 15.504C17.0386 15.952 17.5586 16.176 18.2466 16.176C18.9346 16.176 19.5186 15.952 19.9986 15.504C20.2546 15.264 20.4626 14.968 20.6226 14.616C20.6866 14.488 20.7666 14.424 20.8626 14.424C20.9746 14.424 21.0626 14.512 21.1266 14.688C21.1906 14.864 21.2226 15 21.2226 15.096ZM22.2866 8.64L22.3586 7.68C22.3746 7.536 22.4866 7.464 22.6946 7.464H23.5346L23.4386 5.544V5.448C23.4386 5.08 23.7186 4.728 24.2786 4.392C24.8386 4.056 25.3506 3.888 25.8146 3.888C25.9586 3.888 26.0306 3.952 26.0306 4.08V4.104C25.9666 4.536 25.9026 5.648 25.8386 7.44C26.5426 7.44 26.9906 7.424 27.1826 7.392C27.3746 7.36 27.4786 7.344 27.4946 7.344C27.6066 7.344 27.6626 7.44 27.6626 7.632C27.6626 7.824 27.5746 8.072 27.3986 8.376C27.2226 8.664 27.0306 8.816 26.8226 8.832H25.8146C25.7986 9.376 25.7906 10.296 25.7906 11.592C25.7906 12.872 25.7986 13.928 25.8146 14.76C25.8466 15.592 25.8786 16.224 25.9106 16.656C25.9426 17.072 25.9746 17.408 26.0066 17.664C26.0546 17.92 26.0866 18.104 26.1026 18.216C26.1346 18.328 26.1506 18.4 26.1506 18.432C26.1506 18.592 26.0466 18.68 25.8386 18.696C25.2146 18.696 24.5906 18.608 23.9666 18.432C23.3586 18.256 23.0546 17.952 23.0546 17.52C23.3906 14.832 23.5586 11.944 23.5586 8.856C23.1266 8.856 22.7986 8.872 22.5746 8.904H22.5506C22.4066 8.904 22.3186 8.816 22.2866 8.64ZM30.6337 12.384C30.5377 12.032 30.2817 10.888 29.8657 8.952C29.4497 7.016 29.0257 5.472 28.5937 4.32C28.1617 3.168 27.6497 2.4 27.0577 2.016C26.8977 1.936 26.8177 1.832 26.8177 1.704C26.8177 1.4 27.2497 1.152 28.1137 0.959999C28.9777 0.767999 29.6417 0.671999 30.1057 0.671999C30.5857 0.671999 30.8737 0.807999 30.9697 1.08C31.2577 1.672 31.6257 3 32.0737 5.064C32.9857 9.384 33.6577 12.104 34.0897 13.224C34.1857 13.448 34.3057 13.56 34.4497 13.56C34.5937 13.56 34.7377 13.424 34.8817 13.152C35.0417 12.864 35.2497 12.464 35.5057 11.952C35.7777 11.424 36.1377 10.496 36.5857 9.168C37.0337 7.84 37.2577 6.688 37.2577 5.712C37.2577 4.208 36.7617 3.144 35.7697 2.52C35.6897 2.424 35.6497 2.32 35.6497 2.208C35.6497 1.872 36.1137 1.536 37.0417 1.2C37.9697 0.863999 38.8097 0.696 39.5617 0.696C40.0578 0.696 40.3058 0.927999 40.3058 1.392C40.3058 2.832 40.0178 4.504 39.4418 6.408C38.8657 8.296 38.1777 10.056 37.3777 11.688C36.5777 13.304 35.8337 14.704 35.1457 15.888C34.0577 17.728 33.3697 18.648 33.0817 18.648C32.9377 18.648 32.8017 18.536 32.6737 18.312C32.1937 17.624 31.6177 16.048 30.9457 13.584L30.6337 12.384ZM43.2014 5.16L42.6254 5.136C42.1934 5.136 41.9134 5.24 41.7854 5.448C41.7534 5.496 41.7134 5.52 41.6654 5.52C41.4574 5.52 41.3534 5.168 41.3534 4.464C41.3534 3.744 41.4574 3.288 41.6654 3.096C41.8894 2.904 42.2654 2.808 42.7934 2.808C43.3374 2.808 43.7054 2.904 43.8974 3.096C44.0894 3.272 44.1854 3.576 44.1854 4.008C44.1854 4.44 44.1134 4.744 43.9694 4.92C43.8254 5.08 43.5694 5.16 43.2014 5.16ZM41.2814 17.28L41.5454 11.688C41.5454 10.36 41.3934 9.456 41.0894 8.976C40.9934 8.816 40.8814 8.696 40.7534 8.616C40.6574 8.584 40.6094 8.52 40.6094 8.424C40.6094 8.136 41.0174 7.856 41.8334 7.584C42.6494 7.312 43.2414 7.176 43.6094 7.176C43.9934 7.176 44.1934 7.272 44.2094 7.464C44.2094 7.784 44.1614 8.696 44.0654 10.2C43.9854 11.688 43.9454 13.256 43.9454 14.904C43.9454 16.552 44.0414 17.576 44.2334 17.976C44.2814 18.056 44.3054 18.136 44.3054 18.216C44.3054 18.424 44.0014 18.528 43.3934 18.528C42.7854 18.528 42.1614 18.368 41.5214 18.048C41.3614 17.968 41.2814 17.712 41.2814 17.28ZM53.1884 11.568L53.2844 12.408C53.2844 12.712 52.9964 12.864 52.4204 12.864C51.2524 12.864 50.6684 12.424 50.6684 11.544C50.6684 11.336 50.7244 11.048 50.8364 10.68C50.9484 10.312 51.0044 9.992 51.0044 9.72C51.0044 9.448 50.9244 9.216 50.7644 9.024C50.6044 8.816 50.3724 8.712 50.0684 8.712C49.7644 8.712 49.5004 8.824 49.2764 9.048C49.0684 9.256 48.9404 9.472 48.8924 9.696L48.7964 10.032C48.7004 10.528 48.6524 11.36 48.6524 12.528C48.6524 13.68 48.6684 14.592 48.7004 15.264C48.7324 15.92 48.7644 16.376 48.7964 16.632C48.8284 16.872 48.8444 17.016 48.8444 17.064C48.8444 17.464 48.5964 17.784 48.1004 18.024C47.6044 18.28 47.1084 18.408 46.6124 18.408C46.1164 18.408 45.8684 18.304 45.8684 18.096L45.9884 17.352C46.2124 15.96 46.3244 14.144 46.3244 11.904C46.3244 9.664 46.2444 8.144 46.0844 7.344C46.0844 7.152 46.2524 7.056 46.5884 7.056C47.4524 7.056 48.0284 7.352 48.3164 7.944C48.3324 8.008 48.3564 8.04 48.3884 8.04C48.4364 8.04 48.5484 7.968 48.7244 7.824C49.2524 7.392 49.8764 7.176 50.5964 7.176C51.0444 7.176 51.4924 7.264 51.9404 7.44C52.8524 7.808 53.3084 8.576 53.3084 9.744L53.1884 11.568ZM61.9532 10.8L61.9052 13.872C61.9052 16 62.1372 17.28 62.6012 17.712C62.6652 17.776 62.6972 17.848 62.6972 17.928C62.6972 18.168 62.1772 18.288 61.1372 18.288C60.1132 18.288 59.5692 17.984 59.5052 17.376C59.4892 17.232 59.4812 16.936 59.4812 16.488L59.5772 12.648C59.5772 12.536 59.5132 12.48 59.3852 12.48C58.6172 12.48 57.8972 12.696 57.2252 13.128C56.5532 13.56 56.2172 14.112 56.2172 14.784C56.2172 15.136 56.3132 15.432 56.5052 15.672C56.6972 15.912 56.9292 16.032 57.2012 16.032C57.4892 16.032 57.7212 15.976 57.8972 15.864C58.0892 15.752 58.2012 15.688 58.2332 15.672C58.5052 15.704 58.6412 15.992 58.6412 16.536C58.6412 17.064 58.3932 17.496 57.8972 17.832C57.4012 18.152 56.8812 18.312 56.3372 18.312C55.7932 18.312 55.3212 18.216 54.9212 18.024C54.5372 17.832 54.2572 17.616 54.0812 17.376C53.9052 17.136 53.7612 16.864 53.6492 16.56C53.5372 16.192 53.4812 15.872 53.4812 15.6C53.4812 14.48 53.8332 13.584 54.5372 12.912C55.2412 12.24 56.1452 11.76 57.2492 11.472C58.7052 11.184 59.4652 10.92 59.5292 10.68C59.5772 10.504 59.6012 10.208 59.6012 9.792C59.6012 8.944 59.1692 8.52 58.3052 8.52C57.9372 8.52 57.6092 8.64 57.3212 8.88C57.0332 9.104 56.8892 9.392 56.8892 9.744L57.0332 10.32C57.0012 10.592 56.7132 10.752 56.1692 10.8L55.9052 10.824C55.4252 10.824 55.0412 10.704 54.7532 10.464C54.4812 10.224 54.3452 9.904 54.3452 9.504C54.3452 9.248 54.4252 8.968 54.5852 8.664C54.7612 8.344 54.9772 8.088 55.2332 7.896C55.4892 7.704 55.8812 7.536 56.4092 7.392C56.9532 7.232 57.4732 7.152 57.9692 7.152C58.4652 7.152 58.8492 7.168 59.1212 7.2C59.3932 7.232 59.7612 7.312 60.2252 7.44C60.7052 7.552 61.0972 7.776 61.4012 8.112C61.7212 8.448 61.8892 8.808 61.9052 9.192C61.9372 9.56 61.9532 10.096 61.9532 10.8ZM66.5116 4.272L66.3676 13.08C66.3676 15.832 66.4556 17.48 66.6316 18.024C66.6796 18.12 66.7036 18.216 66.7036 18.312C66.7036 18.504 66.4716 18.6 66.0076 18.6C65.5436 18.6 65.0236 18.48 64.4476 18.24C63.8876 18.016 63.6076 17.72 63.6076 17.352C63.9276 15.112 64.0876 12.12 64.0876 8.376L63.9916 4.704C63.9596 4.256 63.8636 3.872 63.7036 3.552C63.5596 3.232 63.4156 3.024 63.2716 2.928L63.0796 2.808C62.9676 2.744 62.9116 2.672 62.9116 2.592C62.9116 2.368 63.2556 2.096 63.9436 1.776C64.6476 1.44 65.3276 1.272 65.9836 1.272C66.2396 1.272 66.3836 1.36 66.4156 1.536C66.4796 1.952 66.5116 2.864 66.5116 4.272Z" fill="#362F74"/>
</svg>
