<svg width="42" height="42" viewBox="0 0 42 42" fill="none" xmlns="http://www.w3.org/2000/svg">
<path d="M6.00002 7.24828H36C36.3505 7.24812 36.7005 7.27035 37.0481 7.31485C36.9303 6.48776 36.6462 5.6931 36.213 4.97877C35.7797 4.26445 35.2063 3.64526 34.5273 3.15854C33.8483 2.67181 33.0777 2.32764 32.2621 2.14676C31.4465 1.96588 30.6027 1.95205 29.7816 2.1061L5.10939 6.31828H5.08127C3.53259 6.61444 2.15539 7.49065 1.23096 8.76797C2.6237 7.77734 4.2909 7.24608 6.00002 7.24828Z" fill="white"/>
<path d="M36 9.49829H6C4.40923 9.50003 2.88412 10.1327 1.75928 11.2576C0.634436 12.3824 0.00173705 13.9075 0 15.4983V33.4983C0.00173705 35.0891 0.634436 36.6142 1.75928 37.739C2.88412 38.8639 4.40923 39.4966 6 39.4983H36C37.5908 39.4966 39.1159 38.8639 40.2407 37.739C41.3656 36.6142 41.9983 35.0891 42 33.4983V15.4983C41.9983 13.9075 41.3656 12.3824 40.2407 11.2576C39.1159 10.1327 37.5908 9.50003 36 9.49829ZM31.5469 27.4983C30.9535 27.4983 30.3735 27.3223 29.8802 26.9927C29.3868 26.6631 29.0023 26.1945 28.7752 25.6463C28.5482 25.0982 28.4888 24.495 28.6045 23.913C28.7203 23.3311 29.006 22.7965 29.4256 22.377C29.8451 21.9574 30.3797 21.6717 30.9616 21.5559C31.5435 21.4402 32.1467 21.4996 32.6949 21.7267C33.2431 21.9537 33.7116 22.3382 34.0413 22.8316C34.3709 23.3249 34.5469 23.9049 34.5469 24.4983C34.5469 25.2939 34.2308 26.057 33.6682 26.6196C33.1056 27.1822 32.3425 27.4983 31.5469 27.4983Z" fill="white"/>
<path d="M0.046875 21.8264V12.4983C0.046875 10.4667 1.17188 7.06079 5.07656 6.32298C8.39062 5.70142 11.6719 5.70142 11.6719 5.70142C11.6719 5.70142 13.8281 7.20142 12.0469 7.20142C10.2656 7.20142 10.3125 9.49829 12.0469 9.49829C13.7812 9.49829 12.0469 11.7014 12.0469 11.7014L5.0625 19.6233L0.046875 21.8264Z" fill="white"/>
</svg>
